<svg clip-rule="evenodd" fill-rule="evenodd" height="512" stroke-linejoin="round" stroke-miterlimit="2" viewBox="0 0 64 64" width="512" xmlns="http://www.w3.org/2000/svg" xmlns:xlink="http://www.w3.org/1999/xlink"><linearGradient id="_Linear1" gradientTransform="matrix(0 -45.039 62 0 32 55.198)" gradientUnits="userSpaceOnUse" x1="0" x2="1" y1="0" y2="0"><stop offset="0" stop-color="#29f499"/><stop offset="1" stop-color="#009ffc"/></linearGradient><path d="m53.3 37.8c-.5-.5-1.2-.8-2-.8h-6.7c-.8 0-1.5.3-2 .8l-4.7 4.7c-.7.7-.8 1.4-.8 2v6.7c0 .8.3 1.5.8 2l4.7 4.7c.7.7 1.4.8 2 .8h6.7c.8 0 1.5-.3 2-.8l4.7-4.7c.7-.7.8-1.4.8-2v-6.7c0-.8-.3-1.5-.8-2zm3.5 13.4c0 .3-.1.4-.2.6l-4.7 4.7c-.1.1-.3.2-.6.2h-6.7c-.3 0-.4-.1-.6-.2l-4.7-4.7c-.1-.1-.2-.3-.2-.6v-6.7c0-.3.1-.4.2-.6l4.7-4.7c.1-.1.3-.2.6-.2h6.7c.3 0 .5.1.6.2l4.7 4.7c.1.1.2.3.2.6zm-4-6.2c-.6 0-1 .4-1 1s.4 1 1 1c.1 0 .2.1.2.2v1.7h-9.9v-1.9h4.9c.6 0 1-.4 1-1s-.4-1-1-1h-4.8c-1.2 0-2.2 1-2.2 2.2v1.5c0 1.2 1 2.2 2.2 2.2h9.5c1.2 0 2.2-1 2.2-2.2v-1.5c.1-1.2-.9-2.2-2.1-2.2zm7.3-40h-56.2c-1.5 0-2.9 1.4-2.9 2.9v36.2c0 1.5 1.4 2.9 2.9 2.9h30.1c.6 0 1-.4 1-1s-.4-1-1-1h-30.1c-.4 0-.9-.5-.9-.9v-36.2c0-.4.5-.9.9-.9h56.2c.4 0 .9.5.9.9v13.9c0 .6.4 1 1 1s1-.4 1-1v-13.9c0-1.5-1.4-2.9-2.9-2.9zm1.9 26c-.6 0-1 .4-1 1v12.1c0 .3-.1.5-.3.6-.4.4-.4 1 0 1.4.5.5 1.2.2 1.4 0 .6-.5.9-1.3.9-2.1v-12c0-.6-.4-1-1-1zm-57 9.7c0 1.3 1 2.3 2.3 2.3h2.7c.6 0 1-.4 1-1s-.4-1-1-1h-3v-3c0-.6-.4-1-1-1s-1 .4-1 1zm0-6.7c0 .6.4 1 1 1s1-.4 1-1v-2c0-.6-.4-1-1-1s-1 .4-1 1zm52.3-24.7-22.2 20.5c-1.8 1.7-4.5 1.7-6.2 0l-14.3-13.2c-.4-.4-1-.3-1.4.1s-.3 1 .1 1.4l14.3 13.2c1.3 1.2 2.8 1.8 4.4 1.8s3.2-.6 4.5-1.8l22.2-20.5c.4-.4.4-1 .1-1.4-.4-.5-1.1-.5-1.5-.1zm4.7 15.7c-.6 0-1 .4-1 1v1.8c0 .6.4 1 1 1s1-.4 1-1v-1.8c0-.6-.4-1-1-1zm-52.7-10.6c.2.2.9.5 1.4 0 .4-.4.3-1-.1-1.4l-4-3.7c-.4-.4-1-.3-1.4.1s-.3 1 .1 1.4zm32.6-3.4c.6 0 1-.4 1-1s-.4-1-1-1h-1.9c-.6 0-1 .4-1 1s.4 1 1 1zm10.1 0c.6 0 1-.4 1-1s-.4-1-1-1h-6.1c-.6 0-1 .4-1 1s.4 1 1 1z" fill="url(#_Linear1)" fill-rule="nonzero"/></svg>